<svg width="37" height="148" viewBox="0 0 37 148" fill="none" xmlns="http://www.w3.org/2000/svg">
  <path d="M2.45247 94.3267C3.80695 94.3267 4.90497 93.2287 4.90497 91.8743C4.90497 90.5198 3.80695 89.4218 2.45247 89.4218C1.098 89.4218 0 90.5198 0 91.8743C0 93.2287 1.098 94.3267 2.45247 94.3267Z" fill="black"/>
  <path d="M18.0164 94.3267C19.3709 94.3267 20.4689 93.2287 20.4689 91.8743C20.4689 90.5198 19.3709 89.4218 18.0164 89.4218C16.6619 89.4218 15.5639 90.5198 15.5639 91.8743C15.5639 93.2287 16.6619 94.3267 18.0164 94.3267Z" fill="black"/>
  <path d="M33.5803 94.3267C34.9348 94.3267 36.0328 93.2287 36.0328 91.8743C36.0328 90.5198 34.9348 89.4218 33.5803 89.4218C32.2258 89.4218 31.1278 90.5198 31.1278 91.8743C31.1278 93.2287 32.2258 94.3267 33.5803 94.3267Z" fill="black"/>
  <path d="M2.45247 75.9802C3.80695 75.9802 4.90497 74.8822 4.90497 73.5277C4.90497 72.1732 3.80695 71.0752 2.45247 71.0752C1.098 71.0752 0 72.1732 0 73.5277C0 74.8822 1.098 75.9802 2.45247 75.9802Z" fill="black"/>
  <path d="M18.0164 75.9802C19.3709 75.9802 20.4689 74.8822 20.4689 73.5277C20.4689 72.1732 19.3709 71.0752 18.0164 71.0752C16.6619 71.0752 15.5639 72.1732 15.5639 73.5277C15.5639 74.8822 16.6619 75.9802 18.0164 75.9802Z" fill="black"/>
  <path d="M33.5803 75.9802C34.9348 75.9802 36.0328 74.8822 36.0328 73.5277C36.0328 72.1732 34.9348 71.0752 33.5803 71.0752C32.2258 71.0752 31.1278 72.1732 31.1278 73.5277C31.1278 74.8822 32.2258 75.9802 33.5803 75.9802Z" fill="black"/>
  <path d="M2.45247 59.9447C3.80695 59.9447 4.90497 58.8466 4.90497 57.4922C4.90497 56.1377 3.80695 55.0397 2.45247 55.0397C1.098 55.0397 0 56.1377 0 57.4922C0 58.8466 1.098 59.9447 2.45247 59.9447Z" fill="black"/>
  <path d="M18.0164 59.9447C19.3709 59.9447 20.4689 58.8466 20.4689 57.4922C20.4689 56.1377 19.3709 55.0397 18.0164 55.0397C16.6619 55.0397 15.5639 56.1377 15.5639 57.4922C15.5639 58.8466 16.6619 59.9447 18.0164 59.9447Z" fill="black"/>
  <path d="M33.5803 59.9447C34.9348 59.9447 36.0328 58.8466 36.0328 57.4922C36.0328 56.1377 34.9348 55.0397 33.5803 55.0397C32.2258 55.0397 31.1278 56.1377 31.1278 57.4922C31.1278 58.8466 32.2258 59.9447 33.5803 59.9447Z" fill="black"/>
  <path d="M2.45247 147.539C3.80695 147.539 4.90497 146.441 4.90497 145.087C4.90497 143.732 3.80695 142.634 2.45247 142.634C1.098 142.634 0 143.732 0 145.087C0 146.441 1.098 147.539 2.45247 147.539Z" fill="black"/>
  <path d="M18.0164 147.539C19.3709 147.539 20.4689 146.441 20.4689 145.087C20.4689 143.732 19.3709 142.634 18.0164 142.634C16.6619 142.634 15.5639 143.732 15.5639 145.087C15.5639 146.441 16.6619 147.539 18.0164 147.539Z" fill="black"/>
  <path d="M33.5803 147.539C34.9348 147.539 36.0328 146.441 36.0328 145.087C36.0328 143.732 34.9348 142.634 33.5803 142.634C32.2258 142.634 31.1278 143.732 31.1278 145.087C31.1278 146.441 32.2258 147.539 33.5803 147.539Z" fill="black"/>
  <path d="M2.45247 129.193C3.80695 129.193 4.90497 128.095 4.90497 126.74C4.90497 125.386 3.80695 124.288 2.45247 124.288C1.098 124.288 0 125.386 0 126.74C0 128.095 1.098 129.193 2.45247 129.193Z" fill="black"/>
  <path d="M18.0164 129.193C19.3709 129.193 20.4689 128.095 20.4689 126.74C20.4689 125.386 19.3709 124.288 18.0164 124.288C16.6619 124.288 15.5639 125.386 15.5639 126.74C15.5639 128.095 16.6619 129.193 18.0164 129.193Z" fill="black"/>
  <path d="M33.5803 129.193C34.9348 129.193 36.0328 128.095 36.0328 126.74C36.0328 125.386 34.9348 124.288 33.5803 124.288C32.2258 124.288 31.1278 125.386 31.1278 126.74C31.1278 128.095 32.2258 129.193 33.5803 129.193Z" fill="black"/>
  <path d="M2.45247 113.157C3.80695 113.157 4.90497 112.059 4.90497 110.705C4.90497 109.35 3.80695 108.252 2.45247 108.252C1.098 108.252 0 109.35 0 110.705C0 112.059 1.098 113.157 2.45247 113.157Z" fill="black"/>
  <path d="M18.0164 113.157C19.3709 113.157 20.4689 112.059 20.4689 110.705C20.4689 109.35 19.3709 108.252 18.0164 108.252C16.6619 108.252 15.5639 109.35 15.5639 110.705C15.5639 112.059 16.6619 113.157 18.0164 113.157Z" fill="black"/>
  <path d="M33.5803 113.157C34.9348 113.157 36.0328 112.059 36.0328 110.705C36.0328 109.35 34.9348 108.252 33.5803 108.252C32.2258 108.252 31.1278 109.35 31.1278 110.705C31.1278 112.059 32.2258 113.157 33.5803 113.157Z" fill="black"/>
  <path d="M2.45247 41.5981C3.80695 41.5981 4.90497 40.5001 4.90497 39.1456C4.90497 37.7911 3.80695 36.6931 2.45247 36.6931C1.098 36.6931 0 37.7911 0 39.1456C0 40.5001 1.098 41.5981 2.45247 41.5981Z" fill="black"/>
  <path d="M18.0164 41.5981C19.3709 41.5981 20.4689 40.5001 20.4689 39.1456C20.4689 37.7911 19.3709 36.6931 18.0164 36.6931C16.6619 36.6931 15.5639 37.7911 15.5639 39.1456C15.5639 40.5001 16.6619 41.5981 18.0164 41.5981Z" fill="black"/>
  <path d="M33.5803 41.5981C34.9348 41.5981 36.0328 40.5001 36.0328 39.1456C36.0328 37.7911 34.9348 36.6931 33.5803 36.6931C32.2258 36.6931 31.1278 37.7911 31.1278 39.1456C31.1278 40.5001 32.2258 41.5981 33.5803 41.5981Z" fill="black"/>
  <path d="M2.45247 23.2515C3.80695 23.2515 4.90497 22.1535 4.90497 20.7991C4.90497 19.4446 3.80695 18.3466 2.45247 18.3466C1.098 18.3466 0 19.4446 0 20.7991C0 22.1535 1.098 23.2515 2.45247 23.2515Z" fill="black"/>
  <path d="M18.0164 23.2515C19.3709 23.2515 20.4689 22.1535 20.4689 20.7991C20.4689 19.4446 19.3709 18.3466 18.0164 18.3466C16.6619 18.3466 15.5639 19.4446 15.5639 20.7991C15.5639 22.1535 16.6619 23.2515 18.0164 23.2515Z" fill="black"/>
  <path d="M33.5803 23.2515C34.9348 23.2515 36.0328 22.1535 36.0328 20.7991C36.0328 19.4446 34.9348 18.3466 33.5803 18.3466C32.2258 18.3466 31.1278 19.4446 31.1278 20.7991C31.1278 22.1535 32.2258 23.2515 33.5803 23.2515Z" fill="black"/>
  <path d="M2.45247 4.90511C3.80695 4.90511 4.90497 3.80709 4.90497 2.45262C4.90497 1.09814 3.80695 0.00012207 2.45247 0.00012207C1.098 0.00012207 0 1.09814 0 2.45262C0 3.80709 1.098 4.90511 2.45247 4.90511Z" fill="black"/>
  <path d="M18.0164 4.90499C19.3709 4.90499 20.4689 3.80697 20.4689 2.45249C20.4689 1.09802 19.3709 0 18.0164 0C16.6619 0 15.5639 1.09802 15.5639 2.45249C15.5639 3.80697 16.6619 4.90499 18.0164 4.90499Z" fill="black"/>
  <path d="M33.5803 4.90499C34.9348 4.90499 36.0328 3.80697 36.0328 2.45249C36.0328 1.09802 34.9348 0 33.5803 0C32.2258 0 31.1278 1.09802 31.1278 2.45249C31.1278 3.80697 32.2258 4.90499 33.5803 4.90499Z" fill="black"/>
</svg>
